# xmcd
#
# Track frame offsets: 
#        150
#        15760
#        32427
#        42607
#        61989
#        75184
#        85979
#        94096
#        111708
#        130408
#        151043
#        165505
#        178250
#        201352
#        225024
#        238811
#        264666
#
# Disc length: 3749 seconds
#
# Revision: 0
# Processed by: cddbd v1.5.2PL0 Copyright (c) Steve Scherf et al.
# Submitted via: ExactAudioCopy v1.0b1
#
DISCID=d00ea311
DTITLE=Barrelhouse Chuck - 25 Years Of Chicago Blues Piano
DYEAR=2000
DGENRE=Chicago Blues, Electric Blues
TTITLE0=Salute To Sunnyland Slim
TTITLE1=Mamma Told Me
TTITLE2=Baby It's Cold Outside
TTITLE3=Bliues For Pinetop Perkins
TTITLE4=House Cat Blues
TTITLE5=I'll Be Your King
TTITLE6=Leroy Carr's Hop
TTITLE7=Get Your Money
TTITLE8=Any Old Lonesome Day
TTITLE9=Hangin' Round The House
TTITLE10=My Past Life
TTITLE11=Shake It Baby
TTITLE12=Wah-Wah Blues
TTITLE13=Man Or Mouse
TTITLE14=Walkin' The Ceiling
TTITLE15=Farewell To S.P. Leary
TTITLE16=On The House
EXTD=
EXTT0=
EXTT1=
EXTT2=
EXTT3=
EXTT4=
EXTT5=
EXTT6=
EXTT7=
EXTT8=
EXTT9=
EXTT10=
EXTT11=
EXTT12=
EXTT13=
EXTT14=
EXTT15=
EXTT16=
PLAYORDER=
